<svg width="461" height="159" viewBox="0 0 461 159" fill="none" xmlns="http://www.w3.org/2000/svg">
<path d="M3.75384e-07 33.479C5.53784e-07 48.4394 10.3028 60.9063 24.0399 64.0231L24.0399 88.9569C10.3028 92.3854 1.2265e-06 104.852 1.40118e-06 119.501C1.60932e-06 136.955 14.0493 150.98 31.5329 150.98C49.0164 151.603 63.3779 137.578 63.3779 120.124L63.3779 77.7367L96.784 77.7367C109.272 77.7367 108.96 96.4371 96.784 96.4371L90.5399 96.4371C82.7347 96.4371 76.1784 102.982 76.1784 110.774C76.1784 118.566 82.7347 125.111 90.5399 125.111L119.19 125.111C120.751 125.111 122 123.864 122 122.306C122 120.748 120.751 119.501 119.19 119.501L90.8521 119.501C86.169 119.501 82.1103 115.761 82.1103 110.774C82.1103 106.099 85.8568 102.047 90.8521 102.047L97.0962 102.047C105.526 102.047 112.394 95.1904 112.394 86.7752C112.394 78.36 105.526 71.5032 97.0962 71.5032L63.3779 71.5032C63.3779 43.4526 63.3779 32.544 63.3779 31.609C62.4413 15.402 48.7042 2 31.5329 2C14.0493 2 1.6725e-07 16.0253 3.75384e-07 33.479ZM15.9225 120.124C15.9225 117.008 18.4202 114.203 21.8545 114.203C24.9765 114.203 27.7864 116.696 27.7864 120.124C27.7864 123.241 25.2887 126.046 21.8545 126.046C18.7324 125.734 15.9225 123.241 15.9225 120.124ZM39.338 130.41C39.338 133.526 36.8404 136.331 33.4061 136.331C30.284 136.331 27.4742 133.838 27.4742 130.41C27.4742 127.293 29.9718 124.488 33.4061 124.488C36.8404 124.488 39.338 126.981 39.338 130.41ZM51.2019 120.124C51.2019 123.241 48.7042 126.046 45.27 126.046C42.1479 126.046 39.338 123.553 39.338 120.124C39.338 117.008 42.1479 114.203 45.27 114.203C48.392 114.203 51.2019 116.696 51.2019 120.124ZM39.338 109.839C39.338 112.956 36.8404 115.761 33.4061 115.761C30.284 115.761 27.4742 113.267 27.4742 109.839C27.4742 106.722 29.9718 103.917 33.4061 103.917C36.8404 103.917 39.338 106.411 39.338 109.839ZM44.0211 70.2565L44.0211 82.1001C44.0211 83.6585 42.7723 84.9052 41.2113 84.9052C39.6502 84.9052 38.4014 83.6585 38.4014 82.1001L38.4014 70.2565C38.4014 68.6982 39.6502 67.4515 41.2113 67.4515C42.7723 67.1398 44.0211 68.3865 44.0211 70.2565ZM34.6549 21.6354L34.6549 30.674L43.7089 30.674C44.6455 30.674 45.5822 31.2973 46.2066 31.9207C46.5188 32.544 46.5188 32.8557 46.5188 33.479C46.5188 35.0374 45.27 36.2841 43.7089 36.2841L34.6549 36.2841L34.6549 45.011C34.6549 46.5693 33.4061 47.816 31.8451 47.816C30.284 47.816 29.0352 46.5693 29.0352 45.011L29.0352 36.2841L19.669 36.2841C18.108 36.2841 16.8592 35.0374 16.8592 33.479C16.8592 31.9207 18.108 30.674 19.669 30.674L28.723 30.674L28.723 21.6354C28.723 20.0771 29.9718 18.8304 31.5329 18.8304C33.0939 18.8304 34.6549 20.0771 34.6549 21.6354Z" fill="#D13D28"/>
<path d="M107.822 129.315L124.81 35.196C124.901 34.8307 125.13 34.648 125.495 34.648H145.36C145.725 34.648 145.954 34.8307 146.045 35.196L162.348 129.315C162.439 129.772 162.257 130 161.8 130H146.593C146.228 130 145.999 129.772 145.908 129.315L144.401 119.314H125.769L124.262 129.315C124.171 129.772 123.942 130 123.577 130H108.37C108.005 130 107.822 129.772 107.822 129.315ZM128.509 104.655H141.661L136.044 66.158L135.222 61.089L134.674 66.158L128.509 104.655ZM174.772 130C174.316 130 174.087 129.772 174.087 129.315L174.224 35.196C174.224 34.8307 174.407 34.648 174.772 34.648H190.116C190.482 34.648 190.664 34.8307 190.664 35.196L190.801 129.315C190.801 129.772 190.619 130 190.253 130H174.772ZM206.14 130C205.775 130 205.592 129.772 205.592 129.315L205.866 35.196C205.866 34.8307 206.049 34.648 206.414 34.648H234.088C239.02 34.648 243.541 35.881 247.651 38.347C251.852 40.7217 255.186 43.964 257.652 48.074C260.118 52.0927 261.351 56.6593 261.351 61.774C261.351 65.1533 260.849 68.213 259.844 70.953C258.839 73.6017 257.652 75.885 256.282 77.803C254.912 79.6297 253.679 80.9997 252.583 81.913C257.515 87.393 259.981 93.832 259.981 101.23L260.118 129.315C260.118 129.772 259.89 130 259.433 130H243.952C243.587 130 243.404 129.863 243.404 129.589V101.23C243.404 97.942 242.217 95.1107 239.842 92.736C237.559 90.27 234.727 89.037 231.348 89.037H222.306L222.169 129.315C222.169 129.772 221.986 130 221.621 130H206.14ZM222.306 72.597H234.088C236.919 72.597 239.431 71.5467 241.623 69.446C243.815 67.3453 244.911 64.788 244.911 61.774C244.911 58.8513 243.815 56.3397 241.623 54.239C239.522 52.1383 237.011 51.088 234.088 51.088H222.306V72.597ZM275.109 130C274.652 130 274.424 129.772 274.424 129.315L274.698 35.196C274.698 34.8307 274.88 34.648 275.246 34.648H301.55C309.952 34.648 316.574 37.2053 321.415 42.32C326.347 47.4347 328.813 54.376 328.813 63.144C328.813 69.6287 327.534 75.2457 324.977 79.995C322.419 84.7443 319.086 88.3977 314.976 90.955C310.866 93.5123 306.39 94.791 301.55 94.791H291.138V129.315C291.138 129.772 290.909 130 290.453 130H275.109ZM291.138 78.214H301.55C304.472 78.214 306.984 76.844 309.085 74.104C311.277 71.2727 312.373 67.6193 312.373 63.144C312.373 59.582 311.414 56.6593 309.496 54.376C307.578 52.0927 304.929 50.951 301.55 50.951L291.138 51.088V78.214ZM336.489 130C336.032 130 335.804 129.772 335.804 129.315V113.834C335.804 113.651 335.895 113.469 336.078 113.286L369.917 66.843C370.556 66.021 371.059 64.9707 371.424 63.692C371.881 62.322 372.109 61.1347 372.109 60.13C372.109 57.4813 371.15 55.061 369.232 52.869C367.314 50.5857 364.894 49.444 361.971 49.444C359.14 49.444 356.719 50.54 354.71 52.732C352.792 54.8327 351.833 57.527 351.833 60.815V67.528C351.833 67.9847 351.605 68.213 351.148 68.213H335.804C335.439 68.213 335.256 67.9847 335.256 67.528V60.815C335.256 55.7003 336.489 51.0423 338.955 46.841C341.512 42.6397 344.8 39.306 348.819 36.84C352.929 34.374 357.313 33.141 361.971 33.141C366.903 33.141 371.378 34.4197 375.397 36.977C379.416 39.443 382.612 42.731 384.987 46.841C387.453 50.951 388.686 55.3807 388.686 60.13C388.686 63.144 388.138 66.2037 387.042 69.309C386.037 72.4143 384.622 75.1543 382.795 77.529L356.765 113.286H387.59C387.955 113.286 388.138 113.469 388.138 113.834V129.315C388.138 129.772 387.955 130 387.59 130H336.489ZM400.667 130C400.21 130 399.982 129.772 399.982 129.315L400.256 35.196C400.256 34.8307 400.439 34.648 400.804 34.648H427.108C435.511 34.648 442.132 37.2053 446.973 42.32C451.905 47.4347 454.371 54.376 454.371 63.144C454.371 69.6287 453.092 75.2457 450.535 79.995C447.978 84.7443 444.644 88.3977 440.534 90.955C436.424 93.5123 431.949 94.791 427.108 94.791H416.696V129.315C416.696 129.772 416.468 130 416.011 130H400.667ZM416.696 78.214H427.108C430.031 78.214 432.542 76.844 434.643 74.104C436.835 71.2727 437.931 67.6193 437.931 63.144C437.931 59.582 436.972 56.6593 435.054 54.376C433.136 52.0927 430.487 50.951 427.108 50.951L416.696 51.088V78.214Z" fill="#F49E31"/>
</svg>
