<svg width="445" height="159" viewBox="0 0 445 159" fill="none" xmlns="http://www.w3.org/2000/svg">
<path d="M-1.16239e-06 52.0283C-1.03189e-06 62.9724 7.51409 72.0925 17.5329 74.3726L17.5329 92.6128C7.51409 95.1208 -5.39764e-07 104.241 -4.11975e-07 114.957C-2.59717e-07 127.725 10.2465 137.985 22.9977 137.985C35.7488 138.441 46.223 128.181 46.223 115.413L46.223 84.4047L70.5869 84.4047C79.6948 84.4047 79.4671 98.0849 70.5869 98.0849L66.0329 98.0849C60.3404 98.0849 55.5587 102.873 55.5587 108.573C55.5587 114.273 60.3404 119.061 66.0329 119.061L94.9507 119.061C96.0892 119.061 97 118.149 97 117.009C97 115.869 96.0892 114.957 94.9507 114.957L66.2606 114.957C62.8451 114.957 59.885 112.221 59.885 108.573C59.885 105.153 62.6174 102.189 66.2606 102.189L70.8146 102.189C76.9624 102.189 81.9718 97.1729 81.9718 91.0168C81.9718 84.8607 76.9624 79.8446 70.8146 79.8446L46.223 79.8446C46.223 59.3244 46.223 51.3443 46.223 50.6603C45.5399 38.8041 35.5211 29 22.9976 29C10.2465 29 -1.31465e-06 39.2601 -1.16239e-06 52.0283ZM11.6127 115.413C11.6127 113.133 13.4343 111.081 15.939 111.081C18.216 111.081 20.2653 112.905 20.2653 115.413C20.2653 117.693 18.4437 119.745 15.939 119.745C13.662 119.517 11.6127 117.693 11.6127 115.413ZM28.6901 122.937C28.6901 125.217 26.8685 127.269 24.3639 127.269C22.0869 127.269 20.0376 125.445 20.0376 122.937C20.0376 120.657 21.8592 118.605 24.3639 118.605C26.8685 118.605 28.6901 120.429 28.6901 122.937ZM37.3427 115.413C37.3427 117.693 35.5211 119.745 33.0164 119.745C30.7394 119.745 28.6901 117.921 28.6901 115.413C28.6901 113.133 30.7394 111.081 33.0164 111.081C35.2934 111.081 37.3427 112.905 37.3427 115.413ZM28.6901 107.889C28.6901 110.169 26.8685 112.221 24.3639 112.221C22.0869 112.221 20.0376 110.397 20.0376 107.889C20.0376 105.609 21.8592 103.557 24.3639 103.557C26.8685 103.557 28.6901 105.381 28.6901 107.889ZM32.1056 78.9326L32.1056 87.5967C32.1056 88.7368 31.1948 89.6488 30.0563 89.6488C28.9178 89.6488 28.007 88.7368 28.007 87.5967L28.007 78.9326C28.007 77.7926 28.9178 76.8806 30.0563 76.8806C31.1948 76.6526 32.1056 77.5646 32.1056 78.9326ZM25.2746 43.3642L25.2746 49.9763L31.8779 49.9763C32.561 49.9763 33.2441 50.4323 33.6995 50.8883C33.9272 51.3443 33.9272 51.5723 33.9272 52.0283C33.9272 53.1683 33.0164 54.0803 31.8779 54.0803L25.2746 54.0803L25.2746 60.4644C25.2746 61.6044 24.3639 62.5164 23.2254 62.5164C22.0869 62.5164 21.1761 61.6044 21.1761 60.4644L21.1761 54.0803L14.3451 54.0803C13.2066 54.0803 12.2958 53.1683 12.2958 52.0283C12.2958 50.8883 13.2066 49.9763 14.3451 49.9763L20.9484 49.9763L20.9484 43.3642C20.9484 42.2242 21.8592 41.3122 22.9976 41.3122C24.1361 41.3122 25.2746 42.2242 25.2746 43.3642Z" fill="#D13D28"/>
<path d="M91.822 129.315L108.81 35.196C108.901 34.8307 109.13 34.648 109.495 34.648H129.36C129.725 34.648 129.954 34.8307 130.045 35.196L146.348 129.315C146.439 129.772 146.257 130 145.8 130H130.593C130.228 130 129.999 129.772 129.908 129.315L128.401 119.314H109.769L108.262 129.315C108.171 129.772 107.942 130 107.577 130H92.37C92.0047 130 91.822 129.772 91.822 129.315ZM112.509 104.655H125.661L120.044 66.158L119.222 61.089L118.674 66.158L112.509 104.655ZM158.772 130C158.316 130 158.087 129.772 158.087 129.315L158.224 35.196C158.224 34.8307 158.407 34.648 158.772 34.648H174.116C174.482 34.648 174.664 34.8307 174.664 35.196L174.801 129.315C174.801 129.772 174.619 130 174.253 130H158.772ZM190.14 130C189.775 130 189.592 129.772 189.592 129.315L189.866 35.196C189.866 34.8307 190.049 34.648 190.414 34.648H218.088C223.02 34.648 227.541 35.881 231.651 38.347C235.852 40.7217 239.186 43.964 241.652 48.074C244.118 52.0927 245.351 56.6593 245.351 61.774C245.351 65.1533 244.849 68.213 243.844 70.953C242.839 73.6017 241.652 75.885 240.282 77.803C238.912 79.6297 237.679 80.9997 236.583 81.913C241.515 87.393 243.981 93.832 243.981 101.23L244.118 129.315C244.118 129.772 243.89 130 243.433 130H227.952C227.587 130 227.404 129.863 227.404 129.589V101.23C227.404 97.942 226.217 95.1107 223.842 92.736C221.559 90.27 218.727 89.037 215.348 89.037H206.306L206.169 129.315C206.169 129.772 205.986 130 205.621 130H190.14ZM206.306 72.597H218.088C220.919 72.597 223.431 71.5467 225.623 69.446C227.815 67.3453 228.911 64.788 228.911 61.774C228.911 58.8513 227.815 56.3397 225.623 54.239C223.522 52.1383 221.011 51.088 218.088 51.088H206.306V72.597ZM259.109 130C258.652 130 258.424 129.772 258.424 129.315L258.698 35.196C258.698 34.8307 258.88 34.648 259.246 34.648H285.55C293.952 34.648 300.574 37.2053 305.415 42.32C310.347 47.4347 312.813 54.376 312.813 63.144C312.813 69.6287 311.534 75.2457 308.977 79.995C306.419 84.7443 303.086 88.3977 298.976 90.955C294.866 93.5123 290.39 94.791 285.55 94.791H275.138V129.315C275.138 129.772 274.909 130 274.453 130H259.109ZM275.138 78.214H285.55C288.472 78.214 290.984 76.844 293.085 74.104C295.277 71.2727 296.373 67.6193 296.373 63.144C296.373 59.582 295.414 56.6593 293.496 54.376C291.578 52.0927 288.929 50.951 285.55 50.951L275.138 51.088V78.214ZM320.489 130C320.032 130 319.804 129.772 319.804 129.315V113.834C319.804 113.651 319.895 113.469 320.078 113.286L353.917 66.843C354.556 66.021 355.059 64.9707 355.424 63.692C355.881 62.322 356.109 61.1347 356.109 60.13C356.109 57.4813 355.15 55.061 353.232 52.869C351.314 50.5857 348.894 49.444 345.971 49.444C343.14 49.444 340.719 50.54 338.71 52.732C336.792 54.8327 335.833 57.527 335.833 60.815V67.528C335.833 67.9847 335.605 68.213 335.148 68.213H319.804C319.439 68.213 319.256 67.9847 319.256 67.528V60.815C319.256 55.7003 320.489 51.0423 322.955 46.841C325.512 42.6397 328.8 39.306 332.819 36.84C336.929 34.374 341.313 33.141 345.971 33.141C350.903 33.141 355.378 34.4197 359.397 36.977C363.416 39.443 366.612 42.731 368.987 46.841C371.453 50.951 372.686 55.3807 372.686 60.13C372.686 63.144 372.138 66.2037 371.042 69.309C370.037 72.4143 368.622 75.1543 366.795 77.529L340.765 113.286H371.59C371.955 113.286 372.138 113.469 372.138 113.834V129.315C372.138 129.772 371.955 130 371.59 130H320.489ZM384.667 130C384.21 130 383.982 129.772 383.982 129.315L384.256 35.196C384.256 34.8307 384.439 34.648 384.804 34.648H411.108C419.511 34.648 426.132 37.2053 430.973 42.32C435.905 47.4347 438.371 54.376 438.371 63.144C438.371 69.6287 437.092 75.2457 434.535 79.995C431.978 84.7443 428.644 88.3977 424.534 90.955C420.424 93.5123 415.949 94.791 411.108 94.791H400.696V129.315C400.696 129.772 400.468 130 400.011 130H384.667ZM400.696 78.214H411.108C414.031 78.214 416.542 76.844 418.643 74.104C420.835 71.2727 421.931 67.6193 421.931 63.144C421.931 59.582 420.972 56.6593 419.054 54.376C417.136 52.0927 414.487 50.951 411.108 50.951L400.696 51.088V78.214Z" fill="#F49E31"/>
</svg>
